<svg id="visual" viewBox="0 0 900 600" width="900" height="600" xmlns="http://www.w3.org/2000/svg" xmlns:xlink="http://www.w3.org/1999/xlink" version="1.1"><rect width="900" height="600" fill="#001829"></rect><g><g transform="translate(395 49)"><path d="M0 -123.7L107.1 -61.8L107.1 61.8L0 123.7L-107.1 61.8L-107.1 -61.8Z" fill="#4d00ff"></path></g><g transform="translate(774 200)"><path d="M0 -123L106.5 -61.5L106.5 61.5L0 123L-106.5 61.5L-106.5 -61.5Z" fill="#4d00ff"></path></g><g transform="translate(417 401)"><path d="M0 -123L106.5 -61.5L106.5 61.5L0 123L-106.5 61.5L-106.5 -61.5Z" fill="#4d00ff"></path></g><g transform="translate(15 392)"><path d="M0 -123L106.5 -61.5L106.5 61.5L0 123L-106.5 61.5L-106.5 -61.5Z" fill="#4d00ff"></path></g><g transform="translate(650 543)"><path d="M0 -123L106.5 -61.5L106.5 61.5L0 123L-106.5 61.5L-106.5 -61.5Z" fill="#4d00ff"></path></g></g></svg>